<?xml version="1.0" encoding="UTF-8" standalone="no"?><!DOCTYPE svg PUBLIC "-//W3C//DTD SVG 1.1//EN" "http://www.w3.org/Graphics/SVG/1.1/DTD/svg11.dtd"><svg width="100%" height="100%" viewBox="0 0 2992 482" version="1.1" xmlns="http://www.w3.org/2000/svg" xmlns:xlink="http://www.w3.org/1999/xlink" xml:space="preserve" xmlns:serif="http://www.serif.com/" style="fill-rule:evenodd;clip-rule:evenodd;stroke-linejoin:round;stroke-miterlimit:2;"><rect id="Artboard1" x="0" y="0" width="2992" height="482" style="fill:none;"/><clipPath id="_clip1"><rect x="0" y="0" width="2992" height="482"/></clipPath><g clip-path="url(#_clip1)"><rect x="0" y="0" width="2993" height="482" style="fill:#e2e8f0;"/><path d="M2993,248l0,234l-2993,-0l0,-48l42,-28l15,3l30,-20l10,4l36,-39l12,0l23,-20l35,-8l32,-13l16,-13l24,-18l3,6l22,6l8,0l16,-6l26,14l18,0l8,5l18,0l32,11l29,16l24,0l38,-8l76,0l56,-8l15,3l28,-21l27,-12l20,0l22,-10l56,48l19,0l21,-13l42,64l15,12l27,-12l27,-13l30,-2l26,-8l27,4l38,-7l19,3l50,-16l31,24l45,-8l27,0l10,-13l6,1l19,-16l8,-1l28,-24l16,0l29,-19l10,2l36,-30l12,0l8,4l19,-15l6,5l18,-5l14,5l25,-6l24,-11l20,5l19,-12l9,2l36,-8l12,-17l7,0l11,-14l28,-21l8,-2l19,-21l15,6l16,-20l14,-7l4,-10l14,2l27,-20l9,3l14,-6l15,5l21,-5l26,8l15,-4l15,10l32,11l32,-2l8,2l46,2l16,-8l10,2l27,-13l6,1l30,-37l14,-3l27,-22l15,7l18,9l14,9l17,-12l14,-1l11,18l5,-2l13,-3l9,-23l18,-6l7,2l7,-2l33,29l13,17l7,-4l16,15l9,-3l17,6l26,29l23,9l16,-9l17,13l10,3l31,25l24,0l16,11l8,-1l26,26l18,8l1,6l45,22l17,-2l30,10l26,2l9,6l64,-6l16,-1l20,0l23,-12l20,-2l23,-8l14,1l9,7l18,5l12,11l17,1Z" style="fill:url(#_Linear2);"/></g><defs><linearGradient id="_Linear2" x1="0" y1="0" x2="1" y2="0" gradientUnits="userSpaceOnUse" gradientTransform="matrix(2.74321e-14,448,-448,2.74321e-14,1496,34)"><stop offset="0" style="stop-color:#415f88;stop-opacity:1"/><stop offset="1" style="stop-color:#1e293b;stop-opacity:1"/></linearGradient></defs></svg>